<svg xmlns="http://www.w3.org/2000/svg" xmlns:xlink="http://www.w3.org/1999/xlink" version="1.1" id="Your_Icon" x="0px" y="0px" width="100px" height="100px" viewBox="0 0 100 100" enable-background="new 0 0 100 100" xml:space="preserve">
<g>
	<g>
		<path fill="#000000" d="M50.841,1.151c1.355-1.108,3.291-1.454,4.943-0.872c1.913,0.627,3.368,2.465,3.485,4.481    c0.786,0.196,1.593,0.303,2.384,0.479c9.905,2.077,19.062,7.472,25.734,15.074c3.318,3.762,6.039,8.051,8.017,12.661    c4.153,9.613,4.951,20.608,2.316,30.735c-0.029,0.153-0.133,0.37,0.062,0.463c1.213,0.849,2.044,2.229,2.187,3.708    c0.182,1.596-0.433,3.262-1.624,4.344c-1.149,1.104-2.816,1.571-4.382,1.343c-1.68,3.143-3.642,6.143-5.958,8.854    c-5.439,6.44-12.623,11.401-20.587,14.175c-11.002,3.867-23.436,3.494-34.17-1.071c-9.195-3.858-17.091-10.709-22.23-19.251    C7.979,71.245,5.866,65.645,4.9,59.848c-1.238-0.127-2.466-0.599-3.349-1.5c-1.327-1.264-1.849-3.258-1.385-5.021    c0.467-1.93,2.151-3.449,4.093-3.803c0.378-9.448,3.733-18.737,9.417-26.289c5.167-6.897,12.232-12.365,20.231-15.582    c4.252-1.729,8.764-2.814,13.333-3.241c0.589-0.086,1.197-0.033,1.775-0.185C49.207,3.02,49.9,1.92,50.841,1.151z M34.034,9.746    c-4.166,1.756-8.062,4.145-11.53,7.047C14.829,23.189,9.348,32.171,7.23,41.94c-0.529,2.503-0.919,5.05-0.979,7.61    c1.592,0.337,2.996,1.445,3.662,2.934c0.577,1.252,0.608,2.731,0.126,4.018c-0.544,1.416-1.733,2.575-3.176,3.049    c1.096,6.569,3.741,12.865,7.563,18.312c5.744,8.209,14.258,14.445,23.843,17.385c5.772,1.788,11.905,2.39,17.919,1.807    c5.688-0.555,11.268-2.195,16.347-4.814c8.281-4.26,15.23-11.111,19.516-19.385c-0.218-0.152-0.425-0.317-0.626-0.486    c-1.751-1.446-2.311-4.105-1.318-6.144c0.801-1.783,2.701-2.996,4.654-2.986c0.348-0.006,0.696,0.069,1.047,0.035    c0.905-3.671,1.445-7.441,1.457-11.226c0.045-6.061-1.121-12.132-3.451-17.73c-1.87-4.534-4.494-8.754-7.711-12.454    c-6.9-7.971-16.645-13.471-27.076-15.081c-0.476,1.671-1.922,2.995-3.591,3.428c-1.337,0.341-2.813,0.161-3.996-0.565    c-1.237-0.724-2.122-1.991-2.417-3.391C43.878,6.564,38.781,7.738,34.034,9.746z"/>
	</g>
	<g>
		<path fill="#000000" d="M37.095,17.959c7.578-3.3,16.279-3.908,24.254-1.749c5.124,1.385,9.937,3.9,13.999,7.315    c3.586,3.005,6.594,6.699,8.806,10.822c2.891,5.371,4.394,11.473,4.353,17.57c-0.014,8.131-2.837,16.219-7.895,22.587    c-0.99,1.285-2.124,2.451-3.231,3.631c0.352,0.825,0.64,1.702,0.591,2.615c-0.02,1.997-1.315,3.902-3.163,4.658    c-1.922,0.83-4.352,0.366-5.763-1.199c-4.812,2.521-10.162,4.033-15.597,4.256c-6.564,0.309-13.227-1.133-19.009-4.271    c-0.697,0.672-1.533,1.229-2.485,1.454c-1.688,0.45-3.59-0.02-4.854-1.229c-1.078-0.992-1.702-2.46-1.641-3.926    c-0.013-0.829,0.269-1.618,0.6-2.366c-0.79-0.884-1.667-1.705-2.418-2.632c-3.731-4.396-6.409-9.683-7.724-15.297    c-1.702-7.188-1.185-14.886,1.493-21.771c1.79-4.621,4.527-8.874,7.999-12.411C28.729,22.604,32.726,19.854,37.095,17.959z     M43.289,17.95c-4.871,1.211-9.467,3.502-13.375,6.652c-6.319,5.062-10.794,12.389-12.333,20.344    c-1.306,6.48-0.688,13.329,1.727,19.481c1.778,4.51,4.496,8.659,7.962,12.051c0.315,0.123,0.593-0.327,0.903-0.418    c1.641-0.905,3.783-0.812,5.338,0.236c1.204,0.791,2.053,2.107,2.259,3.535c0.174,0.917-0.03,1.838-0.253,2.726    c4.984,2.562,10.567,4.015,16.186,3.957c5.621,0.064,11.215-1.382,16.2-3.952c-0.092-0.561-0.312-1.101-0.3-1.679    c-0.1-1.632,0.638-3.287,1.92-4.301c0.978-0.798,2.252-1.206,3.512-1.131c1.104,0.006,2.13,0.484,3.022,1.098    c1.1-0.961,2.037-2.106,2.96-3.239c3.57-4.486,5.989-9.874,6.981-15.521c1.017-5.738,0.565-11.731-1.312-17.25    c-1.771-5.234-4.826-10.025-8.803-13.859c-3.566-3.437-7.864-6.118-12.535-7.765C56.948,16.634,49.877,16.301,43.289,17.95z"/>
	</g>
	<g>
		<path fill="#000000" d="M44.723,26.63c5.892-1.652,12.365-1.143,17.918,1.438c5.349,2.464,9.825,6.795,12.416,12.088    c1.251-0.031,2.534,0.289,3.532,1.067c1.423,1.057,2.217,2.88,2.029,4.643c-0.15,1.79-1.319,3.391-2.905,4.199    c0.344,5.185-0.911,10.469-3.576,14.933c-2.686,4.538-6.775,8.238-11.577,10.419c-5.139,2.37-11.061,2.963-16.575,1.721    c-4.738-1.056-9.158-3.483-12.597-6.908c-3.899-3.842-6.542-8.947-7.383-14.359c-0.95-5.855,0.155-12.035,3.15-17.162    c0.095-0.153,0.227-0.354,0.041-0.499c-1.557-1.906-1.422-4.913,0.265-6.693c1.225-1.363,3.204-1.979,4.987-1.561    c0.661,0.13,1.24,0.483,1.841,0.761C38.836,28.882,41.689,27.458,44.723,26.63z M37.711,32.178    c0.052,0.298,0.266,0.542,0.37,0.824c0.621,1.5,0.515,3.301-0.337,4.693c-0.672,1.136-1.802,1.991-3.078,2.33    c-1.247,0.343-2.601,0.188-3.759-0.374c-2.213,3.78-3.355,8.184-3.243,12.564c0.07,5.278,1.99,10.501,5.315,14.599    c3.061,3.816,7.315,6.667,12.018,8.021c5.209,1.532,10.939,1.221,15.947-0.882c4.159-1.718,7.808-4.642,10.407-8.312    c3.111-4.355,4.699-9.778,4.403-15.124c-1.96,0.189-3.931-0.935-4.859-2.653c-0.766-1.393-0.845-3.148-0.197-4.603    c0.474-1.097,1.356-1.991,2.41-2.542c-1.163-2.327-2.761-4.431-4.618-6.246c-3.573-3.494-8.261-5.828-13.206-6.553    C49.174,26.984,42.701,28.519,37.711,32.178z"/>
	</g>
	<path fill="#000000" d="M49.658,37.531c2.85-0.399,5.82,0.043,8.401,1.33c3.979,1.929,6.942,5.804,7.743,10.155   c0.59,3.076,0.153,6.347-1.269,9.142c-1.909,3.877-5.681,6.771-9.919,7.612c-3.104,0.635-6.416,0.226-9.254-1.188   c-4.014-1.962-7.001-5.899-7.75-10.311c-0.581-3.188-0.048-6.567,1.513-9.409C41.229,40.945,45.252,38.142,49.658,37.531z"/>
</g>
</svg>